<svg width="431" height="86" viewBox="0 0 431 86" fill="none" xmlns="http://www.w3.org/2000/svg">
<path d="M15.2401 53.0138H13.1026V85.1247H0V1.00684H15.2401C31.2318 1.00684 38.9134 9.31637 38.9134 26.9456C38.9134 44.5749 31.2318 53.0138 15.2401 53.0138ZM14.9876 11.9712H13.1026V42.1911H14.9876C22.6692 42.1911 25.9464 37.6575 25.9464 26.9518C25.9402 16.2523 22.9218 11.9712 14.9876 11.9712Z" fill="black"/>
<path d="M80.8641 85.1244H68.1496L65.2543 63.3373H52.1518L49.2565 85.1244H37.041L50.2668 1.0127H67.7738L80.8641 85.1244ZM58.9587 16.3752H58.4536L53.544 53.2661H63.8683L58.9587 16.3752Z" fill="black"/>
<path d="M86.0312 85.1244V1.0127H99.257V85.1244H86.0312Z" fill="black"/>
<path d="M321.533 79.9572C318.003 83.8564 313.352 85.8768 307.685 85.8768C291.761 85.8768 287.412 73.4402 288.546 57.4494L300.127 57.4248C298.993 68.5062 301.759 75.1834 307.426 75.1834C312.089 75.1834 314.473 72.0358 314.473 65.6173C314.473 63.2211 313.845 60.708 312.459 58.1886C311.073 55.6693 308.178 52.0227 303.515 47.1072C297.847 40.9412 294.071 36.0257 292.186 32.3792C290.424 28.6032 289.537 24.6979 289.537 20.7988C289.537 8.70714 297.348 0.274414 308.547 0.274414C323.683 0.274414 327.096 11.2881 326.553 27.0941H315.225C315.786 16.0804 313.408 10.8507 308.547 10.8507C304.519 10.8507 301.999 14.2509 301.999 19.6654C301.999 21.8028 302.628 24.0758 303.884 26.4658C305.27 28.7326 308.036 32.2621 312.447 36.9128C318.367 43.3374 322.143 48.4931 324.028 52.4046C325.913 56.3037 326.923 60.3384 326.923 64.4962C326.948 70.773 325.186 75.9349 321.533 79.9572Z" fill="black"/>
<path d="M137.912 79.9572C134.382 83.8564 129.731 85.8768 124.064 85.8768C108.14 85.8768 103.791 73.4402 104.924 57.4494L116.505 57.4248C115.372 68.5062 118.138 75.1834 123.805 75.1834C128.468 75.1834 130.852 72.0358 130.852 65.6173C130.852 63.2211 130.224 60.708 128.838 58.1886C127.452 55.6693 124.557 52.0227 119.894 47.1072C114.226 40.9412 110.45 36.0257 108.565 32.3792C106.803 28.6032 105.916 24.6979 105.916 20.7988C105.916 8.70714 113.727 0.274414 124.926 0.274414C140.062 0.274414 143.474 11.2881 142.932 27.0941H131.604C132.164 16.0804 129.787 10.8507 124.926 10.8507C120.898 10.8507 118.378 14.2509 118.378 19.6654C118.378 21.8028 119.006 24.0758 120.263 26.4658C121.649 28.7326 124.415 32.2621 128.826 36.9128C134.746 43.3374 138.522 48.4931 140.407 52.4046C142.292 56.3037 143.302 60.3384 143.302 64.4962C143.327 70.773 141.559 75.9349 137.912 79.9572Z" fill="black"/>
<path d="M189.663 85.1244H176.948L174.053 63.3373H160.956L158.061 85.1244H145.846L159.071 1.0127H176.579L189.663 85.1244ZM167.757 16.3752H167.252L162.343 53.2661H172.667L167.757 16.3752Z" fill="black"/>
<path d="M222.282 51.5044H222.787V1.0127H234.627V85.1244H223.299L207.307 30.8568H206.802V85.1244H194.839V1.0127H208.065L222.282 51.5044Z" fill="black"/>
<path d="M262.952 0.261719C277.182 0.261719 284.358 14.3676 284.358 43.0721C284.358 71.7767 277.182 85.8826 262.952 85.8826C248.475 85.8826 241.416 71.7767 241.416 43.0721C241.422 14.3614 248.475 0.261719 262.952 0.261719ZM269.001 18.3899C267.868 13.727 265.853 11.4663 262.958 11.4663C260.063 11.4663 258.048 13.8625 256.792 18.5131C255.658 23.1761 255.03 31.3563 255.03 43.066C255.03 54.7757 255.658 63.0853 256.792 67.7482C258.054 72.4112 260.069 74.6779 262.958 74.6779C265.847 74.6779 267.868 72.4111 269.001 67.8776C270.134 63.2146 270.763 55.0344 270.763 43.0721C270.763 31.1099 270.128 22.9235 269.001 18.3899Z" fill="black"/>
<path d="M365.01 39.016V13.0033H378.014V0H352V78.0382H365.01V52.0254H404.028V39.016H365.01Z" fill="black"/>
<path d="M378.014 13.0032V26.0065H417.032V52.0192H404.028V65.0225C418.399 65.0225 430.042 53.3806 430.042 39.0098C430.042 24.639 418.399 12.9971 404.028 12.9971H378.014V13.0032Z" fill="black"/>
</svg>
